<svg xmlns="http://www.w3.org/2000/svg" viewBox="0 0 24 24" fill="none" stroke="currentColor" stroke-width="1.8" stroke-linecap="round" stroke-linejoin="round">
  <!-- Clean gear outline that respects currentColor and theme -->
  <path d="M19.14 12.94a7.966 7.966 0 0 0 .06-1 7.966 7.966 0 0 0-.06-1l2.03-1.58a.5.5 0 0 0 .12-.64l-1.92-3.32a.5.5 0 0 0-.6-.22l-2.39.96a7.994 7.994 0 0 0-1.73-1l-.36-2.54A.5.5 0 0 0 13.2 1h-3.4a.5.5 0 0 0-.5.43l-.36 2.54c-.62.25-1.2.58-1.73 1l-2.39-.96a.5.5 0 0 0-.6.22L2.3 7.49a.5.5 0 0 0 .12.64L4.45 9.7c-.04.33-.07.66-.07 1s.03.67.07 1L2.42 13.3a.5.5 0 0 0-.12.64l1.92 3.32c.14.24.43.34.68.22l2.39-.96c.53.42 1.11.76 1.73 1l.36 2.54c.04.25.25.43.5.43h3.4c.25 0 .46-.18.5-.43l.36-2.54c.62-.25 1.2-.58 1.73-1l2.39.96c.25.12.54.02.68-.22l1.92-3.32a.5.5 0 0 0-.12-.64l-2.03-1.58ZM12 15.5A3.5 3.5 0 1 1 12 8.5a3.5 3.5 0 0 1 0 7Z"/>
</svg>
